<?xml version="1.0" encoding="UTF-8" standalone="no"?>
<svg
   version="1.1"
   width="368.50391"
   height="368.50391"
   id="svg79"
   viewBox="0 0 368.50391 368.50391"
   sodipodi:docname="brigada-de-emergencia-seeklogo.com.cdr"
   xmlns:inkscape="http://www.inkscape.org/namespaces/inkscape"
   xmlns:sodipodi="http://sodipodi.sourceforge.net/DTD/sodipodi-0.dtd"
   xmlns:xlink="http://www.w3.org/1999/xlink"
   xmlns="http://www.w3.org/2000/svg"
   xmlns:svg="http://www.w3.org/2000/svg">
  <defs
     id="defs83" />
  <sodipodi:namedview
     id="namedview81"
     pagecolor="#ffffff"
     bordercolor="#666666"
     borderopacity="1.0"
     inkscape:pageshadow="2"
     inkscape:pageopacity="0.0"
     inkscape:pagecheckerboard="0" />
  <g
     id="Layer1000">
    <path
       d="M 184.252,14.1732 A 170.0787,170.0787 0 0 1 354.3307,184.252 170.0787,170.0787 0 1 1 184.252,14.1732 Z"
       style="fill:#c90015;fill-rule:evenodd;stroke:#1b1918;stroke-width:7.8338;stroke-linecap:butt;stroke-linejoin:miter;stroke-dasharray:none"
       id="path2" />
    <path
       d="m 110.9464,233.4072 c -2.4807,1.9819 -4.9613,3.9641 -7.442,5.9461 -5.9674,-5.697 -6.7272,-20.2539 1.5993,-30.5348 12.1353,-14.9837 29.4385,-14.9434 47.228,-12.5843 20.5247,2.7219 39.9106,14.1636 50.0413,32.2752 13.1009,23.4221 1.5352,40.1841 -13.0317,46.4331 l 0.3729,-12.6551 c 6.4734,-4.1624 11.4211,-13.254 7.0258,-24.3028 -6.3615,-15.992 -19.9586,-24.3808 -36.8576,-29.9786 -14.4575,-4.7892 -30.6485,-6.8338 -43.1515,2.441 -8.9776,6.6597 -10.355,15.6456 -5.7845,22.9602 z"
       style="fill:#dedcd8;fill-rule:evenodd;stroke:#1b1918;stroke-width:1.1191;stroke-linecap:round;stroke-linejoin:round;stroke-dasharray:none"
       id="path4" />
    <g
       id="Layer1001">
      <path
         d="m 126.8605,140.4428 138.5687,110.711 q 3.4701,2.7724 6.2425,-0.6976 v 0 q 2.7724,-3.47 -0.6976,-6.2425 L 132.4053,133.5027 q -3.47,-2.7724 -6.2424,0.6977 v 0 q -2.7725,3.47 0.6976,6.2424 z"
         style="fill:#feb80c;fill-rule:evenodd;stroke:#1b1918;stroke-width:0.6953;stroke-linecap:round;stroke-linejoin:round;stroke-dasharray:none"
         id="path6" />
      <path
         d="m 102.9787,118.8051 5.0322,4.0204 q 2.3998,1.9174 4.3172,-0.4824 v 0 q 1.9174,-2.3999 -0.4824,-4.3173 l -5.0322,-4.0205 q -2.3998,-1.9174 -4.3172,0.4825 v 0 q -1.9174,2.3999 0.4824,4.3173 z"
         style="fill:#feb80c;fill-rule:evenodd;stroke:#1b1918;stroke-width:0.6954;stroke-linecap:round;stroke-linejoin:round;stroke-dasharray:none"
         id="path8" />
      <path
         d="m 106.5017,122.2822 6.2848,-6.9174 10.0575,-0.492 c 1.5044,-0.0739 3.518,-0.3046 5.3864,-1.7607 l 5.5232,-4.3039 c 1.1011,-0.8584 2.1873,-2.9816 2.0148,-4.5747 -0.2793,-2.5836 2.5029,-5.1347 4.3372,-5.5107 3.7528,-0.7696 7.3436,1.5842 7.8882,6.0184 0.3008,2.4512 -1.5491,5.5014 -4.6668,5.841 -1.1378,0.124 -2.126,0.7054 -2.7503,1.7822 l -3.0025,5.1812 c -1.4265,2.4614 -1.8136,4.8334 -1.7528,6.9375 l 0.331,11.445 -6.4231,7.5649 c -8.5516,1.4531 -9.2032,5.6379 -6.4444,10.2009 2.0914,3.4596 5.6847,5.6334 9.3922,7.6934 -10.1331,5.095 -21.0281,6.5732 -32.0242,-0.9508 -10.5452,-7.2156 -12.9106,-18.482 -9.2456,-31.8328 2.4171,3.2207 5.7604,5.3902 10.524,5.5658 3.4421,0.1267 4.9491,-1.9335 4.5507,-6.4076 -0.162,-1.8192 0.0132,-3.6532 0.0197,-5.4797 z"
         style="fill:#bfbdc0;fill-rule:evenodd;stroke:#1b1918;stroke-width:0.6986;stroke-linecap:round;stroke-linejoin:round;stroke-dasharray:none"
         id="path10" />
      <path
         d="m 114.6449,129.1672 8.0966,6.4689 q 3.0074,2.4028 5.4101,-0.6046 v 0 q 2.4028,-3.0073 -0.6046,-5.41 l -8.0966,-6.469 q -3.0073,-2.4027 -5.4101,0.6046 v 0 q -2.4027,3.0074 0.6046,5.4101 z"
         style="fill:none;stroke:#1b1918;stroke-width:0.6998;stroke-linecap:round;stroke-linejoin:round;stroke-dasharray:none"
         id="path12" />
      <path
         d="m 109.9231,140.1765 c -2.9579,1.8824 -6.3989,2.833 -10.2524,2.9892 m 12.2423,-0.7362 c -2.295,2.7144 -4.59,5.4291 -6.885,8.1435 m 9.4989,-6.4341 c -0.5407,3.4264 -0.3117,6.8524 0.4112,10.2775"
         style="fill:none;stroke:#1b1918;stroke-width:0.8383;stroke-linecap:round;stroke-linejoin:round;stroke-dasharray:none"
         id="path14" />
    </g>
    <g
       id="Layer1002">
      <path
         d="m 241.5342,140.4428 -138.5687,110.711 q -3.4701,2.7724 -0.6976,6.2425 L 91.1782,243.5161 q 2.7724,3.4701 6.2424,0.6976 l 138.5688,-110.711 q 3.47,-2.7724 0.6976,-6.2424 l 11.0897,13.8801 q -2.7724,-3.47 -6.2425,-0.6976 z"
         style="fill:#feb80c;fill-rule:evenodd;stroke:#1b1918;stroke-width:0.6953;stroke-linecap:round;stroke-linejoin:round;stroke-dasharray:none"
         id="path17" />
      <path
         d="m 265.416,118.8051 -5.0322,4.0204 q -2.3998,1.9174 -0.4824,4.3173 l -7.6696,-9.5995 q 1.9174,2.3999 4.3173,0.4825 l 5.0321,-4.0205 q 2.3998,-1.9174 0.4824,-4.3172 l 7.6696,9.5994 q -1.9174,-2.3998 -4.3172,-0.4824 z"
         style="fill:#feb80c;fill-rule:evenodd;stroke:#1b1918;stroke-width:0.6954;stroke-linecap:round;stroke-linejoin:round;stroke-dasharray:none"
         id="path19" />
      <path
         d="m 261.893,122.2822 -6.2848,-6.9174 -10.0575,-0.492 c -1.5044,-0.0739 -3.518,-0.3046 -5.3864,-1.7607 l -5.5231,-4.3039 c -1.1012,-0.8584 -2.1873,-2.9816 -2.0149,-4.5747 0.2793,-2.5836 -2.5029,-5.1347 -4.3372,-5.5107 -3.7528,-0.7696 -7.3436,1.5842 -7.8882,6.0184 -0.3008,2.4512 1.5491,5.5014 4.6668,5.841 1.1378,0.124 2.126,0.7054 2.7503,1.7822 l 3.0025,5.1812 c 1.4265,2.4614 1.8136,4.8334 1.7528,6.9375 l -0.331,11.445 6.4231,7.5649 c 8.5516,1.4531 9.2032,5.6379 6.4444,10.2009 -2.0914,3.4596 -5.6847,5.6334 -9.3922,7.6934 10.1331,5.095 21.0282,6.5732 32.0242,-0.9508 10.5452,-7.2156 12.9106,-18.482 9.2456,-31.8328 -2.4171,3.2207 -5.7604,5.3902 -10.524,5.5658 -3.4421,0.1267 -4.9491,-1.9335 -4.5507,-6.4076 0.162,-1.8192 -0.0132,-3.6532 -0.0197,-5.4797 z"
         style="fill:#bfbdc0;fill-rule:evenodd;stroke:#1b1918;stroke-width:0.6986;stroke-linecap:round;stroke-linejoin:round;stroke-dasharray:none"
         id="path21" />
      <path
         d="m 253.7498,129.1672 -8.0966,6.4689 q -3.0074,2.4028 -0.6046,5.4101 l -9.611,-12.0293 q 2.4027,3.0073 5.4101,0.6046 l 8.0966,-6.469 q 3.0074,-2.4027 0.6046,-5.4101 l 9.611,12.0294 q -2.4027,-3.0073 -5.4101,-0.6046 z"
         style="fill:none;stroke:#1b1918;stroke-width:0.6998;stroke-linecap:round;stroke-linejoin:round;stroke-dasharray:none"
         id="path23" />
      <path
         d="m 258.4716,140.1765 c 2.9579,1.8824 6.3989,2.833 10.2524,2.9892 m -12.2423,-0.7362 c 2.295,2.7144 4.59,5.4291 6.8851,8.1435 m -9.499,-6.4341 c 0.5408,3.4264 0.3117,6.8524 -0.4112,10.2775"
         style="fill:none;stroke:#1b1918;stroke-width:0.8383;stroke-linecap:round;stroke-linejoin:round;stroke-dasharray:none"
         id="path25" />
    </g>
    <path
       d="m 184.5425,293.805 h 2e-4 c 2.4428,0 4.3767,-1.9994 4.4414,-4.4413 l 4.0288,-152.1965 c 0.0647,-2.442 -6.0305,-4.4414 -8.4702,-4.4414 h -2e-4 c -2.4397,0 -8.5347,2.0026 -8.4702,4.4414 l 4.0288,152.1965 c 0.0645,2.4388 1.9986,4.4413 4.4414,4.4413 z"
       style="fill:#feb80c;fill-rule:evenodd;stroke:#1b1918;stroke-width:1.1245;stroke-linecap:round;stroke-linejoin:round;stroke-dasharray:none"
       id="path28" />
    <defs
       id="defs36">
      <linearGradient
         id="grad1">
        <stop
           offset="0%"
           stop-color="#feb80c"
           stop-opacity="1.0000"
           id="stop30" />
        <stop
           offset="100%"
           stop-color="#fe720e"
           stop-opacity="1.0000"
           id="stop32" />
      </linearGradient>
      <linearGradient
         xlink:href="#grad1"
         id="grad2"
         x1="0"
         y1="0"
         x2="0"
         y2="1"
         gradientTransform="rotate(-155,0.5,0.5)"
         gradientUnits="objectBoundingBox" />
    </defs>
    <path
       d="m 183.2821,122.288 c -4.3428,-1.135 -8.6855,-2.27 -13.0283,-3.405 -7.1407,-11.8442 -4.6538,-23.6883 8.7349,-35.5324 0.0987,-1.9739 0.1975,-3.948 0.2962,-5.9219 2.8463,2.3354 5.1481,5.2151 6.8103,8.7349 2.7857,0.9441 4.3699,2.6092 5.1817,4.7377 3.3672,0.223 4.5813,3.5228 5.1818,7.6987 2.4316,0.562 3.6879,2.1523 2.9612,5.4779 2.001,2.0224 2.0952,4.5902 1.3324,7.4025 2.4712,2.1709 2.3647,4.7386 -0.2961,7.6987 -5.7248,1.0363 -11.4493,2.0726 -17.1741,3.1089 z"
       style="fill:url(#grad2);stroke:#1b1918;stroke-width:1.1191;stroke-linecap:round;stroke-linejoin:round;stroke-dasharray:none"
       id="path38" />
    <path
       d="m 178.9887,83.3506 c -0.4689,9.3272 -6.9336,16.8039 -5.626,26.4272 m 12.7325,-23.6142 c 1.0457,3.5078 -0.2751,5.8439 -0.5923,7.9207 m 5.774,-3.183 c 0.1233,3.9232 -1.0674,4.5338 -3.035,6.8846 -1.9677,2.3509 -2.3643,5.8412 -2.6651,9.2529 M 196.4587,98.6 c -0.1728,3.9973 -3.1584,6.3662 -4.7377,9.5492 m 7.6989,-4.0713 c -0.543,3.3804 -3.6027,4.8364 -5.404,7.2546 m 6.7364,0.1479 c -0.7653,2.4921 -3.3066,2.9117 -4.9599,4.3675"
       style="fill:none;stroke:#1b1918;stroke-width:1.1191;stroke-linecap:round;stroke-linejoin:round;stroke-dasharray:none"
       id="path40" />
    <path
       d="m 170.4776,118.8091 h 28.1298 c 2.3616,0 4.2934,1.9318 4.2934,4.2934 v 2e-4 c 0,2.1485 -1.599,3.9409 -3.6656,4.2471 0.0741,0.8642 0.1124,1.744 0.1124,2.6369 0,5.7534 -1.5834,10.9736 -4.156,14.8088 0.6943,0.7635 1.1189,1.7763 1.1189,2.8833 v 3e-4 c 0,2.3615 -1.9318,4.2934 -4.2934,4.2934 h -14.9492 c -2.3616,0 -4.2934,-1.9319 -4.2934,-4.2934 v -3e-4 c 0,-1.107 0.4246,-2.1198 1.1189,-2.8833 -2.5727,-3.8352 -4.1558,-9.0554 -4.1558,-14.8088 0,-0.8929 0.0381,-1.773 0.1122,-2.6369 -2.0666,-0.3062 -3.6656,-2.0986 -3.6656,-4.2471 v -2e-4 c 0,-2.3616 1.9318,-4.2934 4.2934,-4.2934 z"
       style="fill:#feb80c;fill-rule:evenodd;stroke:#1b1918;stroke-width:1.1191;stroke-linecap:butt;stroke-linejoin:miter;stroke-dasharray:none"
       id="path42" />
    <path
       d="m 169.8498,127.3498 h 29.3854"
       style="fill:none;stroke:#1b1918;stroke-width:1.1191;stroke-linecap:round;stroke-linejoin:round;stroke-dasharray:none"
       id="path44" />
    <path
       d="m 173.8934,144.7955 h 21.2982"
       style="fill:none;stroke:#1b1918;stroke-width:1.1191;stroke-linecap:round;stroke-linejoin:round;stroke-dasharray:none"
       id="path46" />
    <path
       d="m 258.1388,233.4072 c 2.4807,1.9819 4.9613,3.9641 7.442,5.9461 5.9674,-5.697 6.7272,-20.2539 -1.5992,-30.5348 -12.1354,-14.9837 -29.4385,-14.9434 -47.2281,-12.5843 -20.5247,2.7219 -39.9106,14.1636 -50.0413,32.2752 -13.1009,23.4221 -1.5352,40.1841 13.0317,46.4331 l -0.3729,-12.6551 c -6.4734,-4.1624 -11.4211,-13.254 -7.0258,-24.3028 6.3615,-15.992 19.9586,-24.3808 36.8576,-29.9786 14.4575,-4.7892 30.6485,-6.8338 43.1515,2.441 8.9776,6.6597 10.355,15.6456 5.7845,22.9602 z"
       style="fill:#dedcd8;fill-rule:evenodd;stroke:#1b1918;stroke-width:1.1191;stroke-linecap:round;stroke-linejoin:round;stroke-dasharray:none"
       id="path48" />
    <path
       d="m 233.6473,195.4387 c -1.2328,2.0798 -2.4656,4.1593 -3.6985,6.2391 -7.8506,8.8843 -8.3106,21.856 -1.1614,31.991 3.9169,5.5529 13.7108,10.4533 21.6152,5.5059 2.4688,1.9725 4.9375,3.9449 7.4063,5.9174 -9.401,9.1327 -27.4576,5.3479 -35.2648,-4.4427 -12.0537,-15.1155 -10.3103,-35.965 2.7387,-46.828 2.7882,0.5391 5.5763,1.0781 8.3645,1.6173 z"
       style="fill:#dedcd8;fill-rule:evenodd;stroke:#1b1918;stroke-width:1.1191;stroke-linecap:round;stroke-linejoin:round;stroke-dasharray:none"
       id="path50" />
    <path
       d="m 134.7143,195.4387 c 1.2328,2.0798 2.4656,4.1593 3.6984,6.2391 7.8507,8.8843 8.3106,21.856 1.1615,31.991 -3.917,5.5529 -13.7108,10.4533 -21.6152,5.5059 -2.4688,1.9725 -4.9376,3.9449 -7.4063,5.9174 9.401,9.1327 27.4576,5.3479 35.2648,-4.4427 12.0536,-15.1155 10.3103,-35.965 -2.7387,-46.828 -2.7882,0.5391 -5.5763,1.0781 -8.3645,1.6173 z"
       style="fill:#dedcd8;fill-rule:evenodd;stroke:#1b1918;stroke-width:1.1191;stroke-linecap:round;stroke-linejoin:round;stroke-dasharray:none"
       id="path52" />
    <g
       id="Layer1003">
      <path
         d="m 102.2795,169.7394 -4.2337,7.1285 35.2606,20.9412 4.2336,-7.1285 z"
         style="fill:#feb80c;fill-rule:evenodd;stroke:#1b1918;stroke-width:0.9622;stroke-linecap:round;stroke-linejoin:round;stroke-dasharray:none"
         id="path54" />
      <path
         d="m 94.7602,174.5722 1.2523,-1.8561 0.5181,0.3246 1.6632,-2.8004 -0.3704,-0.2083 1.2498,-1.8524 -9.3621,-2.7078 -7.9123,-4.4479 -1.9353,-1.67 -1.6632,2.8005 2.3925,0.9002 7.5417,4.7253 z"
         style="fill:#feb80c;fill-rule:evenodd;stroke:#1b1918;stroke-width:0.9622;stroke-linecap:round;stroke-linejoin:round;stroke-dasharray:none"
         id="path56" />
      <path
         d="m 104.559,168.5106 -5.8918,-1.6769 -4.9014,8.253 4.2917,4.371 z"
         style="fill:#feb80c;fill-rule:evenodd;stroke:#1b1918;stroke-width:0.9622;stroke-linecap:round;stroke-linejoin:round;stroke-dasharray:none"
         id="path58" />
      <path
         d="m 145.0546,190.4945 -8.183,-3.0376 -6.7158,11.308 6.5829,5.7318 z"
         style="fill:#feb80c;fill-rule:evenodd;stroke:#1b1918;stroke-width:0.9622;stroke-linecap:round;stroke-linejoin:round;stroke-dasharray:none"
         id="path60" />
    </g>
    <g
       id="Layer1004">
      <path
         d="m 266.0584,169.7394 4.2336,7.1285 -35.2605,20.9412 -4.2336,-7.1285 z"
         style="fill:#feb80c;fill-rule:evenodd;stroke:#1b1918;stroke-width:0.9622;stroke-linecap:round;stroke-linejoin:round;stroke-dasharray:none"
         id="path63" />
      <path
         d="m 273.5777,174.5722 -1.2523,-1.8561 -0.5182,0.3246 -1.6631,-2.8004 0.3704,-0.2083 -1.2498,-1.8524 9.362,-2.7078 7.9124,-4.4479 1.9352,-1.67 1.6632,2.8005 -2.3924,0.9002 -7.5417,4.7253 z"
         style="fill:#feb80c;fill-rule:evenodd;stroke:#1b1918;stroke-width:0.9622;stroke-linecap:round;stroke-linejoin:round;stroke-dasharray:none"
         id="path65" />
      <path
         d="m 263.7789,168.5106 5.8917,-1.6769 4.9014,8.253 -4.2916,4.371 z"
         style="fill:#feb80c;fill-rule:evenodd;stroke:#1b1918;stroke-width:0.9622;stroke-linecap:round;stroke-linejoin:round;stroke-dasharray:none"
         id="path67" />
      <path
         d="m 223.2833,190.4945 8.1829,-3.0376 6.7158,11.308 -6.5828,5.7318 z"
         style="fill:#feb80c;fill-rule:evenodd;stroke:#1b1918;stroke-width:0.9622;stroke-linecap:round;stroke-linejoin:round;stroke-dasharray:none"
         id="path69" />
    </g>
    <path
       d="M 184.252,65.73 A 118.5219,118.5219 0 0 1 302.7739,184.252 118.5219,118.5219 0 1 1 184.252,65.73 Z"
       style="fill:none;stroke:#1b1918;stroke-width:7.8339;stroke-linecap:butt;stroke-linejoin:miter;stroke-dasharray:none"
       id="path72" />
    <path
       d="m 45.4755,104.4217 7.3979,-10.3855 c 1.4682,-2.0612 2.6422,-3.5304 3.5306,-4.4194 0.8986,-0.8906 1.8971,-1.5372 3.0035,-1.952 1.1124,-0.4105 2.3053,-0.5629 3.5852,-0.4534 1.2796,0.1096 2.4844,0.5669 3.6029,1.3637 1.2091,0.8613 2.0947,1.9842 2.6393,3.3563 0.5506,1.3763 0.673,2.8031 0.3843,4.2831 1.5892,-1.2461 3.2363,-1.8954 4.9557,-1.9556 1.7154,-0.0537 3.3225,0.453 4.8277,1.5254 1.1847,0.844 2.1397,1.934 2.866,3.2808 0.7266,1.3467 1.0872,2.7336 1.078,4.1667 -0.0112,1.4226 -0.4356,2.8882 -1.2731,4.3966 -0.5294,0.9351 -1.9717,3.0879 -4.3288,6.4481 l -6.2995,8.8438 z m 8.0624,-2.1848 5.9848,4.263 2.4458,-3.4335 c 1.451,-2.0372 2.325,-3.328 2.6176,-3.867 0.5345,-0.9678 0.7301,-1.8947 0.5821,-2.7745 -0.1477,-0.8799 -0.6376,-1.6118 -1.4718,-2.206 -0.8042,-0.5728 -1.6104,-0.8098 -2.4265,-0.7259 -0.8161,0.0839 -1.5876,0.5275 -2.3105,1.3248 -0.4309,0.4768 -1.5245,1.9484 -3.2771,4.4089 z m 10.3008,7.3374 6.9639,4.9606 3.4621,-4.8601 c 1.3434,-1.8861 2.1458,-3.1277 2.4048,-3.7088 0.4105,-0.8832 0.5179,-1.7632 0.3167,-2.6447 -0.2073,-0.8859 -0.7624,-1.6547 -1.6872,-2.3136 -0.7859,-0.5596 -1.5782,-0.8418 -2.3936,-0.8483 -0.8109,-0.013 -1.6019,0.2531 -2.3578,0.7899 -0.756,0.5367 -1.9898,1.9998 -3.6906,4.3876 z M 90.43,96.8342 69.6228,72.6746 79.8972,63.826 c 2.5814,-2.2231 4.6486,-3.6217 6.1912,-4.1961 1.5485,-0.579 3.1454,-0.6128 4.8026,-0.1103 1.6619,0.5081 3.106,1.4683 4.3364,2.8967 1.5643,1.8164 2.324,3.7677 2.2783,5.864 -0.0459,2.0966 -0.9924,4.2048 -2.8405,6.3351 1.5795,-0.2927 3.0267,-0.3639 4.3417,-0.2131 1.3206,0.1458 3.3715,0.6617 6.1476,1.5422 l 7.0054,2.1749 -5.8317,5.0226 -8.0409,-2.2626 c -2.8672,-0.7926 -4.7444,-1.2324 -5.6328,-1.3197 -0.8778,-0.0864 -1.6576,-0.0025 -2.3297,0.2632 -0.6782,0.2702 -1.5767,0.8875 -2.7014,1.8562 l -0.9897,0.8523 8.6891,10.0891 z M 83.3208,78.685 86.9311,75.5754 c 2.3394,-2.0146 3.709,-3.3706 4.1242,-4.0709 0.4098,-0.6959 0.5755,-1.4361 0.485,-2.2007 -0.0846,-0.769 -0.4447,-1.517 -1.0694,-2.2424 -0.7023,-0.8154 -1.4835,-1.279 -2.3524,-1.4122 -0.8642,-0.1275 -1.7483,0.0855 -2.6469,0.6341 -0.4479,0.2877 -1.6586,1.2814 -3.6325,2.9816 l -3.8072,3.279 z m 32.0667,-1.7185 -17.1546,-26.8764 5.443,-3.474 17.1545,26.8764 z m 20.2304,-23.1352 -1.9572,-5.0199 12.9031,-5.0307 4.6208,11.8522 c -0.7744,1.7118 -2.1751,3.4928 -4.1969,5.3561 -2.0174,1.8542 -4.25,3.2582 -6.698,4.2126 -3.1046,1.2104 -6.062,1.6147 -8.8811,1.2082 -2.8121,-0.4092 -5.2784,-1.6064 -7.3864,-3.5805 -2.108,-1.9741 -3.7213,-4.3962 -4.8348,-7.2522 -1.2078,-3.0977 -1.6308,-6.1034 -1.2785,-9.021 0.3617,-2.913 1.5338,-5.5049 3.5288,-7.7644 1.5229,-1.7329 3.6964,-3.1459 6.5316,-4.2514 3.6855,-1.4369 6.8712,-1.7865 9.5495,-1.0463 2.674,0.7498 4.8418,2.366 6.5041,4.8724 l -5.5379,3.4496 c -0.9837,-1.2973 -2.2221,-2.1447 -3.7087,-2.5449 -1.4766,-0.3962 -3.0794,-0.2572 -4.8082,0.4168 -2.6136,1.019 -4.3715,2.6603 -5.2639,4.9281 -0.8924,2.2676 -0.7044,5.0381 0.571,8.3088 1.3776,3.5338 3.1915,5.8774 5.4418,7.0315 2.257,1.1513 4.6488,1.2384 7.1868,0.2491 1.2514,-0.4879 2.4128,-1.2277 3.48,-2.2092 1.0741,-0.9846 1.9184,-2.0065 2.5489,-3.065 l -1.4692,-3.7688 z m 51.8061,2.3596 -6.9343,0.528 -3.2965,-7.0286 -12.751,0.9708 -2.091,7.4388 -6.8085,0.5183 9.9235,-32.7322 6.8011,-0.5178 z m -12.7269,-11.7145 -5.314,-11.4303 -3.3963,12.0934 z m 20.1227,-19.4826 11.653,1.4387 c 2.6297,0.3248 4.6088,0.7709 5.936,1.3461 1.7815,0.7736 3.2527,1.9424 4.3982,3.5044 1.154,1.5561 1.945,3.3885 2.3873,5.4998 0.4358,2.1029 0.4736,4.6426 0.1079,7.6038 -0.3219,2.6073 -0.9226,4.8066 -1.8036,6.6124 -1.0728,2.2083 -2.4298,3.9326 -4.0711,5.1733 -1.2387,0.9463 -2.8377,1.6012 -4.7905,1.9735 -1.4625,0.2755 -3.3682,0.2647 -5.7252,-0.0265 l -11.999,-1.4814 z m 5.7483,6.1388 -2.5867,20.9489 4.7511,0.5866 c 1.7751,0.2191 3.0695,0.2742 3.8822,0.1728 1.0703,-0.1296 1.9795,-0.466 2.7333,-1.0012 0.7615,-0.534 1.4395,-1.4824 2.0413,-2.8439 0.6095,-1.3608 1.0623,-3.2714 1.3642,-5.7169 0.302,-2.4455 0.3194,-4.3429 0.0466,-5.7077 -0.2655,-1.364 -0.7438,-2.4552 -1.4264,-3.2871 -0.6832,-0.8246 -1.6013,-1.4466 -2.7625,-1.8517 -0.8595,-0.308 -2.5923,-0.6267 -5.1851,-0.9468 z m 48.6849,41.7795 -6.4607,-2.5733 0.1278,-7.7622 -11.8803,-4.7319 -5.1473,5.763 -6.3437,-2.5265 23.299,-25.0406 6.3367,2.5239 z m -6.2834,-16.1158 0.25,-12.6026 -8.3656,9.3701 z m 40.1263,1.4909 8.4854,8.1152 c 1.9149,1.8313 3.2356,3.3715 3.9564,4.6256 0.9664,1.6845 1.4481,3.5008 1.4335,5.438 -0.004,1.937 -0.4646,3.8791 -1.3711,5.8364 -0.9067,1.9469 -2.3936,4.0061 -4.4557,6.1624 -1.8159,1.8987 -3.6114,3.3036 -5.3966,4.2253 -2.1796,1.1301 -4.2981,1.7022 -6.3555,1.7168 -1.5587,0.0188 -3.2322,-0.411 -5.0206,-1.2794 -1.3376,-0.6525 -2.8591,-1.7996 -4.5756,-3.4411 l -8.7377,-8.3565 z m 0.9423,8.3569 -14.5888,15.2548 3.4596,3.3086 c 1.2926,1.2361 2.2978,2.0538 3.01,2.4578 0.9358,0.5356 1.8658,0.8089 2.7902,0.8301 0.9298,0.0265 2.0399,-0.329 3.3359,-1.0613 1.3015,-0.7272 2.8061,-1.9889 4.5091,-3.7697 1.7031,-1.7807 2.8507,-3.292 3.4472,-4.5494 0.602,-1.2526 0.8702,-2.4133 0.8198,-3.4883 -0.0553,-1.0695 -0.4199,-2.1165 -1.1092,-3.1354 -0.5052,-0.7603 -1.7047,-2.0511 -3.5927,-3.8567 z m 0.1328,37.2023 26.8763,-17.1545 12.6983,19.8944 -4.5421,2.8992 -9.224,-14.4517 -5.9683,3.8095 8.5772,13.438 -4.5421,2.8991 -8.5772,-13.4381 -7.2821,4.6479 9.5595,14.977 -4.5418,2.8992 z"
       style="fill:#ffffff;fill-rule:evenodd"
       id="path74" />
    <path
       d="m 51.8637,276.5394 22.4804,-17.7515 13.1401,16.6405 -3.799,2.9999 -9.5452,-12.0879 -4.9922,3.942 8.876,11.24 -3.7992,3.0002 -8.876,-11.2402 -6.0909,4.8097 9.8924,12.5275 -3.799,2.9999 z m 19.8989,24.5462 17.3694,-22.7768 6.9083,5.2684 -7.764,18.6477 15.8812,-12.4577 6.9245,5.2805 -17.3697,22.7768 -4.2627,-3.2506 13.6582,-17.9433 -18.1647,14.5065 -4.4326,-3.3802 9.205,-21.3394 -13.6902,17.9189 z m 30.885,22.6015 12.7493,-25.6502 18.987,9.4371 -2.1545,4.3348 -13.7925,-6.8553 -2.8312,5.6959 12.8254,6.3747 -2.1548,4.3348 -12.8251,-6.3745 -3.4543,6.95 14.2939,7.1046 -2.1546,4.3348 z m 28.6992,13.0721 7.598,-27.6182 11.7454,3.2314 c 2.9507,0.8118 5.0291,1.6529 6.2299,2.516 1.2075,0.8646 2.0323,2.0388 2.4876,3.5266 0.4535,1.494 0.4604,3.0518 0.0112,4.6846 -0.5712,2.0764 -1.646,3.6204 -3.2323,4.6361 -1.5864,1.0159 -3.6329,1.3658 -6.1475,1.0544 1.0094,1.0314 1.7872,2.0753 2.3336,3.1313 0.5524,1.058 1.1947,2.8462 1.9282,5.3575 l 1.8866,6.3141 -6.6666,-1.8341 -2.3396,-7.1303 c -0.8447,-2.5351 -1.4571,-4.1556 -1.8367,-4.8617 -0.3751,-0.6979 -0.8284,-1.2375 -1.3629,-1.6062 -0.5414,-0.37 -1.4517,-0.7312 -2.7376,-1.0849 l -1.1314,-0.3113 -3.1729,11.5334 z m 9.9757,-14.3919 4.1273,1.1354 c 2.6742,0.7357 4.3713,1.0782 5.1016,1.037 0.7241,-0.0428 1.3591,-0.2899 1.8842,-0.7402 0.5313,-0.4485 0.9087,-1.0918 1.1368,-1.9209 0.2565,-0.9322 0.2113,-1.7469 -0.1247,-2.4618 -0.3378,-0.7082 -0.9394,-1.261 -1.7989,-1.6565 -0.4387,-0.1898 -1.7861,-0.5952 -4.0429,-1.2161 l -4.3521,-1.1972 z m 36.5867,12.3239 0.1876,-4.837 12.4325,0.4821 -0.4429,11.4197 c -1.2516,1.1326 -3.0438,2.0973 -5.3776,2.9075 -2.3267,0.804 -4.669,1.1603 -7.0276,1.0688 -2.9915,-0.116 -5.5724,-0.8436 -7.7488,-2.189 -2.17,-1.3452 -3.7722,-3.2157 -4.8008,-5.5977 -1.0285,-2.3819 -1.4894,-4.9554 -1.3826,-7.7071 0.1157,-2.9849 0.8449,-5.6124 2.1809,-7.8894 1.3425,-2.27 3.2374,-3.9847 5.6905,-5.1307 1.8759,-0.8814 4.173,-1.2662 6.9046,-1.1601 3.5512,0.1377 6.3006,0.9916 8.2416,2.5615 1.9339,1.5764 3.1401,3.685 3.6108,6.3458 l -5.7986,0.8562 c -0.3452,-1.4216 -1.0614,-2.5637 -2.1425,-3.4263 -1.0744,-0.8557 -2.4444,-1.3159 -4.1101,-1.3804 -2.5185,-0.0978 -4.555,0.6238 -6.103,2.172 -1.548,1.5482 -2.3866,3.8977 -2.5088,7.0491 -0.1321,3.4046 0.5219,5.9856 1.9618,7.743 1.4466,1.7577 3.3855,2.687 5.8308,2.7817 1.206,0.0468 2.4278,-0.1459 3.6587,-0.5719 1.2377,-0.4257 2.2995,-0.9651 3.1986,-1.611 l 0.1408,-3.6311 z m 22.3061,10.5612 -5.419,-28.1267 20.8202,-4.0113 0.9159,4.7531 -15.1241,2.914 1.2033,6.246 14.0633,-2.7096 0.9159,4.7533 -14.0633,2.7097 1.4683,7.621 15.674,-3.0199 0.9156,4.7531 z m -1.5898,-31.5127 2.9368,-6.4327 4.9627,-0.9562 5.0642,4.8913 -4.3214,0.8326 -2.7718,-2.4401 -1.5099,3.2649 z m 32.438,24.9443 -10.124,-26.7953 5.252,-1.9842 17.8119,13.7907 -6.7845,-17.9572 5.0148,-1.8947 10.124,26.7954 -5.4201,2.048 -17.5143,-13.5114 6.655,17.6141 z m 40.9775,-31.7421 5.6552,-1.532 c 0.9544,3.1264 0.9904,5.8707 0.1164,8.2347 -0.8777,2.3584 -2.6119,4.3585 -5.2118,5.998 -3.2206,2.0308 -6.5594,2.5991 -10.0217,1.708 -3.457,-0.8941 -6.3902,-3.2461 -8.7979,-7.0643 -2.5429,-4.0324 -3.4769,-7.8262 -2.8041,-11.3721 0.6729,-3.5458 2.7097,-6.3908 6.1051,-8.5319 2.9665,-1.8705 5.9295,-2.5093 8.8856,-1.9218 1.7597,0.3407 3.5221,1.3105 5.3019,2.9077 l -4.1139,4.2019 c -1.077,-1.0706 -2.3007,-1.6863 -3.6676,-1.8412 -1.3724,-0.1515 -2.7055,0.1846 -4.0026,1.0027 -1.7991,1.1344 -2.8547,2.6985 -3.1568,4.6941 -0.3116,1.9936 0.4461,4.4326 2.2669,7.3201 1.9275,3.057 3.8565,4.8911 5.7744,5.4949 1.9271,0.6057 3.7683,0.351 5.5338,-0.7623 1.3029,-0.8214 2.1655,-1.9408 2.579,-3.3603 0.4136,-1.4193 0.2723,-3.1434 -0.4419,-5.1762 z m 17.4433,-0.6844 -18.5235,-21.8488 4.4248,-3.7511 18.5233,21.8486 z m 28.0412,-31.0738 -3.7887,4.968 -6.6852,-1.9873 -6.9665,9.1352 3.7419,5.8472 -3.7198,4.8775 -16.0327,-26.2131 3.7157,-4.8725 z m -15.4634,1.5404 -10.8436,-3.2634 6.0849,9.5036 z"
       style="fill:#ffffff;fill-rule:evenodd"
       id="path76" />
  </g>
</svg>
